<svg width="188" height="52" viewBox="0 0 188 52" fill="none" xmlns="http://www.w3.org/2000/svg">
<path d="M47.7631 51.33H3.62018C1.63492 51.33 0 49.6968 0 47.7136V3.61643C0 1.63323 1.63492 0 3.62018 0H47.7631C49.7483 0 51.3833 1.63323 51.3833 3.61643V47.7136C51.3833 49.6968 49.7483 51.33 47.7631 51.33Z" fill="url(#paint0_linear_6002_1222)"/>
<path d="M11.0919 44.656C11.0452 44.7026 10.9751 44.726 10.9051 44.726C10.835 44.726 10.7649 44.7026 10.7182 44.656C10.6715 44.6093 10.6481 44.5393 10.6481 44.4693V42.5094C10.6481 42.4394 10.6715 42.3694 10.7182 42.3228C10.7649 42.2761 10.835 42.2528 10.9051 42.2528C10.9751 42.2528 11.0452 42.2761 11.0919 42.3228C11.1386 42.3694 11.162 42.4394 11.162 42.5094V44.4693C11.1853 44.5393 11.1386 44.6093 11.0919 44.656Z" fill="white"/>
<path d="M15.7398 42.3228C15.7865 42.2761 15.8565 42.2528 15.9266 42.2528C15.9967 42.2528 16.0667 42.2761 16.1135 42.3228C16.1602 42.3694 16.1835 42.4394 16.1835 42.5094V44.166C16.1835 44.3293 16.1368 44.446 16.02 44.5626C15.9032 44.6793 15.7865 44.7259 15.623 44.7259C15.5763 44.7259 15.5062 44.7259 15.4595 44.7026C15.4128 44.6793 15.3661 44.6559 15.3193 44.6326L12.6801 43.0227C12.61 42.976 12.54 42.9527 12.4933 42.9294C12.4466 42.9061 12.3998 42.8827 12.3765 42.8827C12.3298 42.8827 12.2831 42.9294 12.2597 42.9994C12.2364 43.0694 12.2364 43.186 12.2364 43.326V44.446C12.2364 44.5159 12.213 44.5859 12.1663 44.6326C12.1196 44.6793 12.0495 44.7026 11.9794 44.7026C11.9094 44.7026 11.8393 44.6793 11.7926 44.6326C11.7459 44.5859 11.7225 44.5159 11.7225 44.446V42.7894C11.7225 42.6261 11.7692 42.5094 11.886 42.3928C12.0028 42.2761 12.1196 42.2294 12.2831 42.2294C12.3298 42.2294 12.3998 42.2294 12.4466 42.2528C12.4933 42.2761 12.54 42.2994 12.5867 42.3228L15.2259 43.9327C15.296 43.9793 15.3661 44.0026 15.4128 44.026C15.4595 44.0493 15.5062 44.0726 15.5296 44.0726C15.5763 44.0726 15.623 44.026 15.6463 43.956C15.6697 43.886 15.6697 43.7693 15.6697 43.6293V42.5094C15.6463 42.4394 15.693 42.3694 15.7398 42.3228Z" fill="white"/>
<path d="M17.328 43.2094H18.6593C18.8695 43.2094 19.0563 43.1861 19.2432 43.1394C19.43 43.0927 19.6169 43.0227 19.8037 42.9294C19.9906 42.8361 20.1541 42.7427 20.3176 42.6494C20.4811 42.5328 20.6446 42.4394 20.808 42.3228C20.8781 42.2761 20.9482 42.2528 20.9949 42.2528C21.065 42.2528 21.135 42.2761 21.1817 42.3228C21.2285 42.3694 21.2518 42.4394 21.2518 42.5094C21.2518 42.5561 21.2285 42.6028 21.2051 42.6494C21.1817 42.6961 21.135 42.7194 21.0883 42.7661C20.9949 42.8361 20.9015 42.9061 20.808 42.9761C20.7146 43.0461 20.6212 43.1161 20.5278 43.1627C20.4344 43.2094 20.3409 43.2794 20.2475 43.326C20.1541 43.3727 20.0373 43.4427 19.9439 43.4894C20.0607 43.536 20.1541 43.606 20.2475 43.6527C20.3409 43.6994 20.4344 43.7693 20.5278 43.816C20.6212 43.8627 20.7146 43.9327 20.808 44.0027C20.9015 44.0727 20.9949 44.1427 21.0883 44.2127C21.135 44.236 21.1584 44.2826 21.2051 44.3293C21.2285 44.376 21.2518 44.4226 21.2518 44.4693C21.2518 44.5393 21.2285 44.6093 21.1817 44.656C21.135 44.7026 21.065 44.726 20.9949 44.726C20.9248 44.726 20.8548 44.7026 20.808 44.656C20.6446 44.5393 20.4811 44.4226 20.3176 44.3293C20.1541 44.2127 19.9672 44.1193 19.8037 44.0493C19.6169 43.956 19.43 43.9093 19.2432 43.8393C19.0563 43.7927 18.8461 43.7694 18.6593 43.7694H17.328V44.4693C17.328 44.5393 17.3046 44.6093 17.2579 44.656C17.2112 44.7026 17.1411 44.726 17.0711 44.726C17.001 44.726 16.9309 44.7026 16.8842 44.656C16.8375 44.6093 16.8142 44.5393 16.8142 44.4693V42.5094C16.8142 42.4394 16.8375 42.3694 16.8842 42.3228C16.9309 42.2761 17.001 42.2528 17.0711 42.2528C17.1411 42.2528 17.2112 42.2761 17.2579 42.3228C17.3046 42.3694 17.328 42.4394 17.328 42.5094V43.2094Z" fill="white"/>
<path d="M24.3348 44.656C24.2881 44.7026 24.218 44.726 24.1479 44.726C24.0779 44.726 24.0078 44.7026 23.9611 44.656C23.9144 44.6093 23.891 44.5393 23.891 44.4693V43.7694C23.7509 43.7694 23.6107 43.746 23.4706 43.7227C23.3305 43.676 23.1903 43.6294 23.0268 43.5361C22.8867 43.4427 22.7232 43.3494 22.5364 43.2094C22.3729 43.0694 22.1627 42.9294 21.9525 42.7428C21.9291 42.7194 21.9058 42.6728 21.8824 42.6494C21.859 42.6028 21.859 42.5795 21.859 42.5328C21.859 42.4628 21.8824 42.3928 21.9291 42.3461C21.9758 42.2995 22.0459 42.2761 22.116 42.2761C22.1627 42.2761 22.186 42.2761 22.2094 42.2995C22.2327 42.3228 22.2795 42.3228 22.3028 42.3461C22.5364 42.5561 22.7466 42.7194 22.9101 42.8361C23.0736 42.9528 23.2371 43.0461 23.3538 43.0927C23.494 43.1394 23.6107 43.1861 23.7275 43.2094C23.8443 43.2327 23.9844 43.2327 24.1246 43.2327C24.2647 43.2327 24.4049 43.2327 24.5216 43.2094C24.6384 43.2094 24.7552 43.1627 24.8953 43.1161C25.0355 43.0694 25.1756 42.9761 25.3391 42.8594C25.5026 42.7428 25.7128 42.5794 25.9697 42.3461C26.0398 42.2995 26.1098 42.2761 26.1566 42.2761C26.2266 42.2761 26.2967 42.2995 26.3434 42.3461C26.3901 42.3928 26.4135 42.4628 26.4135 42.5328C26.4135 42.5795 26.4135 42.6261 26.3901 42.6494C26.3668 42.6961 26.3434 42.7194 26.32 42.7428C26.1098 42.9294 25.923 43.0927 25.7361 43.2094C25.5493 43.3494 25.3858 43.4427 25.2457 43.5361C25.0822 43.6294 24.942 43.676 24.8019 43.7227C24.6618 43.7694 24.5216 43.7694 24.4049 43.7694V44.4693C24.4282 44.5393 24.4049 44.6093 24.3348 44.656Z" fill="white"/>
<path d="M27.1142 44.656C27.0675 44.6093 27.0441 44.5393 27.0441 44.4693V42.5094C27.0441 42.4394 27.0675 42.3694 27.1142 42.3228C27.1609 42.2761 27.231 42.2528 27.301 42.2528H30.7344C30.8511 42.2528 30.9446 42.2761 31.038 42.3228C31.1314 42.3694 31.2248 42.4161 31.2949 42.4861C31.365 42.5561 31.4117 42.6261 31.4584 42.7194C31.5051 42.8127 31.5285 42.9061 31.5285 43.0227C31.5285 43.1161 31.5051 43.2094 31.4818 43.2794C31.4584 43.3727 31.4117 43.4427 31.3416 43.4894C31.3883 43.5594 31.435 43.6294 31.4818 43.6994C31.5051 43.7927 31.5285 43.8627 31.5285 43.956C31.5285 44.0727 31.5051 44.166 31.4584 44.2593C31.4117 44.3526 31.365 44.4226 31.2949 44.4926C31.2248 44.5626 31.1314 44.6093 31.038 44.656C30.9446 44.7026 30.8511 44.726 30.7344 44.726H27.301C27.231 44.7493 27.1609 44.726 27.1142 44.656ZM27.5813 42.7894V43.2094H30.7811C30.8278 43.2094 30.8979 43.1861 30.9212 43.1627C30.9679 43.1161 30.9913 43.0694 30.9913 43.0227C30.9913 42.9761 30.9679 42.9061 30.9212 42.8594C30.8745 42.8127 30.8278 42.7894 30.7577 42.7894H27.5813ZM27.5813 44.1893H30.7577C30.8044 44.1893 30.8745 44.166 30.9212 44.1193C30.9679 44.0727 30.9913 44.026 30.9913 43.9793C30.9913 43.9093 30.9679 43.8627 30.9212 43.816C30.8745 43.7693 30.8278 43.746 30.7577 43.746H27.5813V44.1893Z" fill="white"/>
<path d="M32.5795 44.6326C32.5328 44.7026 32.4627 44.726 32.3693 44.726C32.2992 44.726 32.2291 44.7026 32.1824 44.656C32.1357 44.6093 32.1123 44.5393 32.1123 44.4693C32.1123 44.3993 32.1357 44.3526 32.1591 44.306L33.5604 42.4394C33.6305 42.3461 33.7006 42.2761 33.8173 42.2294C33.9341 42.1828 34.0275 42.1361 34.1677 42.1361C34.2845 42.1361 34.4012 42.1595 34.4947 42.2061C34.5881 42.2528 34.6815 42.3228 34.7516 42.4161L36.1529 44.2827C36.1763 44.306 36.1997 44.3293 36.1997 44.376C36.223 44.3993 36.223 44.446 36.223 44.4926C36.223 44.5626 36.1997 44.6326 36.1529 44.6793C36.1062 44.726 36.0362 44.7493 35.9661 44.7493C35.8727 44.7493 35.8026 44.7026 35.7559 44.6326L34.4246 42.8594C34.4012 42.8361 34.3545 42.7894 34.3312 42.7661C34.2845 42.7194 34.2611 42.7194 34.2144 42.7194C34.1677 42.7194 34.121 42.7428 34.0976 42.7661C34.0509 42.8127 34.0275 42.8361 34.0042 42.8594L32.5795 44.6326Z" fill="white"/>
<path d="M38.6987 44.656C38.652 44.7026 38.5819 44.726 38.5119 44.726C38.4418 44.726 38.3717 44.7026 38.325 44.656C38.2783 44.6093 38.255 44.5393 38.255 44.4693V43.7694C38.1148 43.7694 37.9747 43.746 37.8345 43.7227C37.6944 43.676 37.5543 43.6294 37.3908 43.5361C37.2507 43.4427 37.0872 43.3494 36.9003 43.2094C36.7368 43.0694 36.5266 42.9294 36.3164 42.7428C36.2931 42.7194 36.2697 42.6728 36.2463 42.6494C36.223 42.6028 36.223 42.5795 36.223 42.5328C36.223 42.4628 36.2463 42.3928 36.2931 42.3461C36.3398 42.2995 36.4098 42.2761 36.4799 42.2761C36.5266 42.2761 36.55 42.2761 36.5733 42.2995C36.5967 42.3228 36.6434 42.3228 36.6667 42.3461C36.9003 42.5561 37.1105 42.7194 37.274 42.8361C37.4375 42.9528 37.601 43.0461 37.7178 43.0927C37.8579 43.1394 37.9747 43.1861 38.0915 43.2094C38.2082 43.2327 38.3484 43.2327 38.4885 43.2327C38.6287 43.2327 38.7688 43.2327 38.8856 43.2094C39.0024 43.2094 39.1191 43.1627 39.2593 43.1161C39.3994 43.0694 39.5395 42.9761 39.703 42.8594C39.8665 42.7428 40.0767 42.5794 40.3336 42.3461C40.4037 42.2995 40.4738 42.2761 40.5205 42.2761C40.5906 42.2761 40.6606 42.2995 40.7073 42.3461C40.7541 42.3928 40.7774 42.4628 40.7774 42.5328C40.7774 42.5795 40.7774 42.6261 40.7541 42.6494C40.7307 42.6961 40.7073 42.7194 40.684 42.7428C40.4738 42.9294 40.2869 43.0927 40.1001 43.2094C39.9132 43.3494 39.7497 43.4427 39.6096 43.5361C39.4461 43.6294 39.306 43.676 39.1658 43.7227C39.0257 43.7694 38.8856 43.7694 38.7688 43.7694V44.4693C38.7688 44.5393 38.7454 44.6093 38.6987 44.656Z" fill="white"/>
<path d="M40.8443 29.9112C40.8443 32.6644 39.7232 35.1609 37.9248 36.9574C36.1264 38.754 33.6273 39.8739 30.8713 39.8739H24.6819C22.7667 39.8739 21.2252 38.334 21.2252 36.4208V9.56587C21.2252 7.65266 22.7667 6.11276 24.6819 6.11276C25.6395 6.11276 26.5037 6.5094 27.1343 7.11603C27.7649 7.74599 28.1386 8.60927 28.1386 9.56587V19.9485H30.8713C36.3833 19.9485 40.8443 24.4049 40.8443 29.9112Z" fill="white"/>
<path d="M34.4466 29.9345C34.4466 32.1043 32.6715 33.8776 30.4994 33.8776C28.3273 33.8776 26.5523 32.1043 26.5523 29.9345C26.5523 27.7646 28.3273 25.9914 30.4994 25.9914C32.6715 25.9914 34.4466 27.7646 34.4466 29.9345Z" fill="#D42427"/>
<path d="M11.4873 8.81925C11.4873 8.44594 11.5573 8.09597 11.6975 7.76932C11.8376 7.44268 12.0245 7.16269 12.258 6.90604C12.4916 6.64939 12.7719 6.46274 13.0988 6.32275C13.4258 6.18276 13.7528 6.11276 14.1032 6.11276C14.4535 6.11276 14.8038 6.18276 15.1075 6.32275C15.4344 6.46274 15.6914 6.64939 15.9483 6.90604C16.1818 7.16269 16.3687 7.44268 16.5088 7.76932C16.649 8.09597 16.719 8.44594 16.719 8.81925C16.719 9.19256 16.649 9.54254 16.5088 9.86919C16.3687 10.1958 16.1818 10.4758 15.9483 10.7325C15.7147 10.9891 15.4344 11.1758 15.1075 11.3158C14.7805 11.4557 14.4535 11.5257 14.1032 11.5257C13.7528 11.5257 13.4025 11.4557 13.0988 11.3158C12.7719 11.1758 12.5149 10.9891 12.258 10.7325C12.0245 10.4758 11.8376 10.1958 11.6975 9.86919C11.534 9.51921 11.4873 9.16923 11.4873 8.81925Z" fill="white"/>
<path d="M17.5137 35.8839V36.4439C17.4904 38.3104 15.9722 39.827 14.0804 39.827C12.1885 39.827 10.6704 38.3104 10.647 36.4439V35.8839C10.647 29.7243 10.647 23.5647 10.647 17.4051V12.2721H11.6046V21.6048C11.6046 22.4681 11.628 23.308 11.6046 24.1713C11.5813 24.778 11.6981 25.3379 11.9083 25.8979C12.6089 27.6944 12.7024 29.561 12.7024 31.4509C12.7024 31.7542 12.5856 32.0575 12.5155 32.3375C12.3987 32.9208 12.2119 33.5041 12.1885 34.0874C12.1418 34.7173 12.4688 35.2539 12.9826 35.6273C13.4264 35.9306 13.8702 35.9306 14.2672 35.5806C14.8511 35.0673 15.038 34.414 14.8511 33.6907C14.711 33.1307 14.4541 32.5941 14.2439 32.0342C13.3797 29.771 13.6133 27.6011 14.7811 25.5246C15.038 25.0579 15.4117 24.7546 15.9956 24.8713C16.3459 24.9413 16.4393 24.778 16.4393 24.428C16.4393 21.6748 16.4393 18.9217 16.4393 16.1685V12.2721H17.5137V16.1685C17.5137 17.6384 17.5137 19.1083 17.5137 20.5782V24.4746C17.5137 28.2777 17.5137 32.0808 17.5137 35.8839Z" fill="white"/>
<path d="M65.2472 45.146H62.9542V36.3692H66.5866C67.5628 36.3692 68.3347 36.6187 68.8569 37.1403C69.379 37.6619 69.6515 38.365 69.6515 39.2948C69.6515 40.2247 69.379 40.9504 68.8569 41.4493C68.3347 41.971 67.5855 42.2204 66.5866 42.2204H65.2245V45.146H65.2472ZM65.2472 40.3834H65.9964C66.8364 40.3834 67.245 40.0206 67.245 39.2948C67.245 38.5691 66.8364 38.2062 65.9964 38.2062H65.2472V40.3834Z" fill="#1A1A1A"/>
<path d="M72.7844 39.1588V40.134C73.0115 39.7711 73.2839 39.499 73.6017 39.3176C73.9196 39.1361 74.3055 39.0227 74.7369 39.0227C74.7823 39.0227 74.8504 39.0227 74.9185 39.0227C74.9866 39.0227 75.0547 39.0227 75.1455 39.0454V41.0638C74.8731 40.9278 74.5552 40.8597 74.2374 40.8597C73.7379 40.8597 73.3747 40.9958 73.125 41.2906C72.8753 41.5855 72.7617 42.0163 72.7617 42.5606V45.1234H70.6504V39.1588H72.7844Z" fill="#1A1A1A"/>
<path d="M75.9173 42.107C75.9173 41.6535 76.0082 41.2452 76.1898 40.8597C76.3714 40.4741 76.6211 40.134 76.939 39.8618C77.2568 39.5897 77.6427 39.3629 78.0741 39.1814C78.5054 39.0227 78.9822 38.932 79.5043 38.932C80.0265 38.932 80.5032 39.0227 80.9346 39.1814C81.3659 39.3402 81.7519 39.567 82.0697 39.8391C82.3876 40.1113 82.6373 40.4515 82.8189 40.8597C83.0005 41.2452 83.0913 41.6761 83.0913 42.1524C83.0913 42.6286 83.0005 43.0596 82.8189 43.4451C82.6373 43.8306 82.3876 44.1708 82.0697 44.4656C81.7519 44.7378 81.3659 44.9646 80.9119 45.1233C80.4578 45.2821 79.9811 45.3501 79.4589 45.3501C78.9368 45.3501 78.4827 45.2821 78.0287 45.1233C77.5973 44.9646 77.2114 44.7378 76.8936 44.4656C76.5757 44.1708 76.326 43.8306 76.1444 43.4451C76.0082 43.0369 75.9173 42.5833 75.9173 42.107ZM78.1422 42.1297C78.1422 42.3338 78.1876 42.5153 78.2557 42.674C78.3238 42.8328 78.4373 42.9915 78.5508 43.1049C78.6643 43.2183 78.8233 43.3317 78.9822 43.3997C79.1411 43.4678 79.3227 43.5131 79.5043 43.5131C79.686 43.5131 79.8676 43.4678 80.0265 43.3997C80.1854 43.3317 80.3443 43.241 80.4578 43.1049C80.5714 42.9915 80.6849 42.8328 80.753 42.674C80.8211 42.5153 80.8665 42.3338 80.8665 42.1297C80.8665 41.9483 80.8211 41.7668 80.753 41.6081C80.6849 41.4493 80.5714 41.2906 80.4578 41.1772C80.3443 41.0638 80.1854 40.9504 80.0265 40.8824C79.8676 40.8143 79.686 40.769 79.5043 40.769C79.3227 40.769 79.1411 40.8143 78.9822 40.8824C78.8233 40.9504 78.6643 41.0411 78.5508 41.1772C78.4373 41.2906 78.3238 41.4493 78.2557 41.6081C78.1649 41.7668 78.1422 41.9483 78.1422 42.1297Z" fill="#1A1A1A"/>
<path d="M88.9032 35.4848H91.0145V45.146H88.9032V44.4883C88.4491 45.0553 87.8361 45.3275 87.0643 45.3275C86.6329 45.3275 86.2243 45.2367 85.861 45.078C85.4978 44.9192 85.18 44.6924 84.9075 44.3976C84.6351 44.1028 84.4308 43.7626 84.2719 43.3771C84.1129 42.9915 84.0448 42.5606 84.0448 42.1297C84.0448 41.6988 84.1129 41.2906 84.2492 40.9051C84.3854 40.5195 84.5897 40.1793 84.8621 39.9072C85.1345 39.6124 85.4524 39.3856 85.8156 39.2268C86.1789 39.0681 86.5875 38.9773 87.0416 38.9773C87.7907 38.9773 88.4037 39.2268 88.9032 39.7484V35.4848ZM86.247 42.1297C86.247 42.3338 86.2924 42.5153 86.3605 42.674C86.4286 42.8328 86.5194 42.9915 86.6556 43.1049C86.7691 43.2183 86.928 43.3317 87.087 43.3997C87.2459 43.4678 87.4275 43.5131 87.6318 43.5131C87.8134 43.5131 87.9951 43.4678 88.154 43.3997C88.3129 43.3317 88.4718 43.241 88.5853 43.1049C88.6988 42.9915 88.8124 42.8328 88.8805 42.674C88.9486 42.5153 88.994 42.3338 88.994 42.1524C88.994 41.971 88.9486 41.7895 88.8805 41.6308C88.8124 41.472 88.6988 41.3133 88.5853 41.1999C88.4718 41.0865 88.3129 40.9731 88.154 40.9051C87.9951 40.837 87.8134 40.7917 87.6318 40.7917C87.4502 40.7917 87.2686 40.837 87.1097 40.9051C86.9508 40.9731 86.7918 41.0638 86.6783 41.1999C86.5648 41.3133 86.4513 41.472 86.3832 41.6308C86.2924 41.7669 86.247 41.9483 86.247 42.1297Z" fill="#1A1A1A"/>
<path d="M94.5788 39.1588V42.5153C94.5788 43.2637 94.9421 43.6265 95.6459 43.6265C96.3496 43.6265 96.7129 43.2637 96.7129 42.5153V39.1588H98.8242V42.9235C98.8242 43.7399 98.5518 44.3296 98.0296 44.7378C97.5075 45.146 96.7129 45.3501 95.6459 45.3501C94.5788 45.3501 93.7842 45.146 93.2621 44.7378C92.7399 44.3296 92.4675 43.7399 92.4675 42.9235V39.1588H94.5788Z" fill="#1A1A1A"/>
<path d="M104.772 41.1091C104.409 40.8597 104.046 40.7463 103.66 40.7463C103.455 40.7463 103.274 40.7916 103.092 40.8597C102.911 40.9277 102.774 41.0184 102.638 41.1545C102.502 41.2906 102.411 41.4267 102.32 41.6081C102.252 41.7895 102.207 41.971 102.207 42.1977C102.207 42.4019 102.252 42.606 102.32 42.7647C102.388 42.9461 102.502 43.0822 102.616 43.2183C102.752 43.3544 102.888 43.4451 103.07 43.5131C103.251 43.5812 103.433 43.6265 103.637 43.6265C104.023 43.6265 104.409 43.4904 104.75 43.2183V45.0099C104.227 45.2367 103.728 45.3501 103.274 45.3501C102.843 45.3501 102.434 45.2821 102.025 45.1233C101.639 44.9873 101.276 44.7605 100.981 44.4883C100.686 44.2162 100.436 43.876 100.254 43.4904C100.073 43.1049 99.982 42.674 99.982 42.1977C99.982 41.7215 100.073 41.2906 100.232 40.905C100.413 40.5195 100.64 40.1793 100.936 39.8845C101.231 39.6123 101.571 39.3855 101.98 39.2268C102.388 39.068 102.82 38.9773 103.297 38.9773C103.819 38.9773 104.273 39.0907 104.727 39.2948V41.1091H104.772Z" fill="#1A1A1A"/>
<path d="M108.337 40.9277V45.146H106.225V40.9277H105.521V39.1814H106.225V37.3898H108.337V39.1814H109.54V40.9277H108.337Z" fill="#1A1A1A"/>
<path d="M120.8 39.2948C120.278 38.6598 119.62 38.3196 118.848 38.3196C118.507 38.3196 118.189 38.3877 117.894 38.5011C117.599 38.6145 117.349 38.7959 117.145 39C116.941 39.2041 116.759 39.4763 116.646 39.7711C116.532 40.0659 116.464 40.3834 116.464 40.7236C116.464 41.0638 116.532 41.404 116.646 41.6988C116.759 41.9936 116.941 42.2431 117.145 42.4699C117.349 42.6967 117.599 42.8554 117.894 42.9915C118.189 43.1049 118.485 43.1729 118.825 43.1729C119.552 43.1729 120.21 42.8554 120.8 42.2431V44.9419L120.573 45.0326C120.233 45.146 119.892 45.2367 119.597 45.3048C119.302 45.3728 118.984 45.3955 118.689 45.3955C118.076 45.3955 117.508 45.2821 116.941 45.0553C116.396 44.8285 115.896 44.511 115.465 44.0801C115.034 43.6719 114.693 43.1729 114.443 42.606C114.194 42.039 114.058 41.404 114.058 40.7463C114.058 40.0659 114.194 39.4536 114.443 38.8866C114.693 38.3196 115.034 37.8434 115.465 37.4352C115.896 37.0269 116.373 36.7094 116.941 36.4826C117.508 36.2559 118.076 36.1425 118.712 36.1425C119.052 36.1425 119.415 36.1878 119.733 36.2559C120.074 36.3239 120.437 36.4373 120.8 36.596V39.2948Z" fill="#1A1A1A"/>
<path d="M124.16 39.1588V42.5153C124.16 43.2637 124.523 43.6265 125.227 43.6265C125.931 43.6265 126.294 43.2637 126.294 42.5153V39.1588H128.406V42.9235C128.406 43.7399 128.133 44.3296 127.611 44.7378C127.089 45.146 126.294 45.3501 125.227 45.3501C124.16 45.3501 123.366 45.146 122.843 44.7378C122.321 44.3296 122.049 43.7399 122.049 42.9235V39.1588H124.16Z" fill="#1A1A1A"/>
<path d="M133.809 40.7009C133.423 40.4968 133.037 40.4061 132.674 40.4061C132.469 40.4061 132.333 40.4515 132.197 40.5195C132.083 40.5875 132.015 40.7009 132.015 40.837C132.015 40.905 132.015 40.9731 132.038 40.9958C132.061 41.0411 132.106 41.0865 132.174 41.1091C132.242 41.1318 132.333 41.1772 132.469 41.2225C132.605 41.2452 132.764 41.2906 132.969 41.3359C133.559 41.4493 133.99 41.6534 134.263 41.9483C134.558 42.2431 134.694 42.6286 134.694 43.1049C134.694 43.4451 134.626 43.7626 134.49 44.0574C134.354 44.3296 134.149 44.579 133.9 44.7605C133.65 44.9419 133.355 45.1006 132.991 45.214C132.651 45.3274 132.265 45.3728 131.834 45.3728C131.016 45.3728 130.222 45.146 129.45 44.6924L130.222 43.1956C130.812 43.6038 131.38 43.8079 131.902 43.8079C132.106 43.8079 132.265 43.7626 132.378 43.6719C132.492 43.5812 132.56 43.4678 132.56 43.3544C132.56 43.2863 132.56 43.2183 132.537 43.1729C132.515 43.1276 132.469 43.0822 132.424 43.0369C132.356 42.9915 132.265 42.9461 132.151 42.9235C132.038 42.8781 131.879 42.8554 131.675 42.8101C131.016 42.674 130.562 42.4926 130.313 42.2204C130.063 41.9709 129.927 41.6081 129.927 41.1545C129.927 40.8143 129.995 40.5195 130.108 40.2473C130.222 39.9752 130.403 39.7484 130.653 39.567C130.88 39.3855 131.175 39.2268 131.493 39.1361C131.834 39.0454 132.197 38.9773 132.605 38.9773C133.264 38.9773 133.9 39.1134 134.535 39.3629L133.809 40.7009Z" fill="#1A1A1A"/>
<path d="M138.304 40.9277V45.146H136.192V40.9277H135.489V39.1814H136.192V37.3898H138.304V39.1814H139.507V40.9277H138.304Z" fill="#1A1A1A"/>
<path d="M140.165 42.107C140.165 41.6535 140.256 41.2452 140.438 40.8597C140.619 40.4741 140.869 40.134 141.187 39.8618C141.505 39.5897 141.891 39.3629 142.322 39.1814C142.753 39.0227 143.23 38.932 143.752 38.932C144.275 38.932 144.751 39.0227 145.183 39.1814C145.614 39.3402 146 39.567 146.318 39.8391C146.636 40.1113 146.885 40.4515 147.067 40.8597C147.249 41.2452 147.339 41.6761 147.339 42.1524C147.339 42.6286 147.249 43.0596 147.067 43.4451C146.885 43.8306 146.636 44.1708 146.318 44.4656C146 44.7378 145.614 44.9646 145.16 45.1233C144.706 45.2821 144.229 45.3501 143.707 45.3501C143.185 45.3501 142.731 45.2821 142.277 45.1233C141.845 44.9646 141.459 44.7378 141.142 44.4656C140.824 44.1708 140.574 43.8306 140.392 43.4451C140.256 43.0369 140.165 42.5833 140.165 42.107ZM142.39 42.1297C142.39 42.3338 142.436 42.5153 142.504 42.674C142.572 42.8328 142.685 42.9915 142.799 43.1049C142.912 43.2183 143.071 43.3317 143.23 43.3997C143.389 43.4678 143.571 43.5131 143.752 43.5131C143.934 43.5131 144.116 43.4678 144.275 43.3997C144.433 43.3317 144.592 43.241 144.706 43.1049C144.819 42.9915 144.933 42.8328 145.001 42.674C145.069 42.5153 145.115 42.3338 145.115 42.1297C145.115 41.9483 145.069 41.7668 145.001 41.6081C144.933 41.4493 144.819 41.2906 144.706 41.1772C144.592 41.0638 144.433 40.9504 144.275 40.8824C144.116 40.8143 143.934 40.769 143.752 40.769C143.571 40.769 143.389 40.8143 143.23 40.8824C143.071 40.9504 142.912 41.0411 142.799 41.1772C142.685 41.2906 142.572 41.4493 142.504 41.6081C142.413 41.7668 142.39 41.9483 142.39 42.1297Z" fill="#1A1A1A"/>
<path d="M150.654 39.1588V39.8845C151.222 39.3402 151.88 39.0681 152.584 39.0681C153.469 39.0681 154.15 39.4309 154.604 40.1793C155.081 39.4309 155.762 39.0454 156.625 39.0454C156.897 39.0454 157.17 39.0907 157.419 39.1588C157.669 39.2495 157.873 39.3629 158.055 39.5443C158.237 39.7257 158.373 39.9525 158.486 40.2247C158.6 40.4968 158.645 40.837 158.645 41.2452V45.1233H156.534V42.1751C156.534 41.8802 156.511 41.6308 156.466 41.4267C156.42 41.2226 156.352 41.0865 156.284 40.9731C156.193 40.8597 156.103 40.7917 155.989 40.7463C155.876 40.7009 155.762 40.6783 155.649 40.6783C154.967 40.6783 154.627 41.1772 154.627 42.1524V45.1007H152.516V42.1524C152.516 41.8576 152.493 41.6081 152.447 41.404C152.402 41.1999 152.357 41.0411 152.289 40.9277C152.22 40.8143 152.13 40.7236 151.993 40.6783C151.88 40.6329 151.744 40.6102 151.585 40.6102C151.449 40.6102 151.335 40.6329 151.222 40.6783C151.108 40.7236 150.995 40.7917 150.904 40.905C150.813 41.0184 150.745 41.1772 150.699 41.3813C150.654 41.5854 150.631 41.8349 150.631 42.1524V45.1007H148.52V39.1588H150.654Z" fill="#1A1A1A"/>
<path d="M159.962 36.8682C159.962 36.7094 159.985 36.5507 160.053 36.4146C160.121 36.2785 160.189 36.1425 160.303 36.0291C160.416 35.9157 160.53 35.825 160.688 35.7796C160.825 35.7116 160.984 35.6889 161.143 35.6889C161.301 35.6889 161.46 35.7116 161.597 35.7796C161.733 35.8476 161.869 35.9383 161.983 36.0291C162.096 36.1425 162.187 36.2559 162.232 36.4146C162.3 36.5507 162.323 36.7094 162.323 36.8682C162.323 37.0269 162.3 37.1857 162.232 37.3218C162.164 37.4578 162.073 37.5939 161.983 37.7073C161.869 37.8207 161.756 37.9114 161.597 37.9568C161.46 38.0248 161.301 38.0475 161.143 38.0475C160.984 38.0475 160.825 38.0248 160.688 37.9568C160.552 37.8887 160.416 37.8207 160.303 37.7073C160.189 37.5939 160.098 37.4805 160.053 37.3218C160.007 37.1857 159.962 37.0269 159.962 36.8682ZM162.21 39.1588V45.1233H160.098V39.1588H162.21Z" fill="#1A1A1A"/>
<path d="M166.75 43.3771H169.27V45.146H163.208L166.024 40.9277H163.594V39.1815H169.542L166.75 43.3771Z" fill="#1A1A1A"/>
<path d="M172.426 42.5152C172.426 43.4224 172.857 43.876 173.697 43.876C174.151 43.876 174.492 43.6946 174.741 43.309H176.785C176.376 44.6697 175.354 45.3501 173.697 45.3501C173.198 45.3501 172.721 45.2821 172.312 45.1233C171.903 44.9646 171.54 44.7605 171.245 44.4883C170.95 44.2162 170.723 43.876 170.541 43.4904C170.382 43.1049 170.292 42.674 170.292 42.1977C170.292 41.6988 170.36 41.2452 170.519 40.8597C170.678 40.4515 170.905 40.1113 171.177 39.8391C171.472 39.567 171.813 39.3402 172.221 39.2041C172.63 39.0454 173.084 38.9773 173.606 38.9773C174.106 38.9773 174.56 39.0454 174.968 39.2041C175.377 39.3629 175.718 39.567 175.99 39.8618C176.262 40.1566 176.489 40.4968 176.626 40.905C176.762 41.3133 176.853 41.7895 176.853 42.3111V42.5379H172.426V42.5152ZM174.9 41.2906C174.832 40.9958 174.696 40.769 174.469 40.5875C174.242 40.4061 173.992 40.3154 173.674 40.3154C173.356 40.3154 173.084 40.4061 172.88 40.5649C172.675 40.7463 172.539 40.9731 172.494 41.2906H174.9Z" fill="#1A1A1A"/>
<path d="M180.167 39.1588V40.134C180.394 39.7711 180.667 39.499 180.985 39.3176C181.302 39.1361 181.688 39.0227 182.12 39.0227C182.165 39.0227 182.233 39.0227 182.301 39.0227C182.369 39.0227 182.437 39.0227 182.528 39.0454V41.0638C182.256 40.9278 181.938 40.8597 181.62 40.8597C181.121 40.8597 180.757 40.9958 180.508 41.2906C180.258 41.5855 180.145 42.0163 180.145 42.5606V45.1234H178.033V39.1588H180.167Z" fill="#1A1A1A"/>
<path d="M68.3116 7.99835V28.5001H62.9765V7.99835H68.3116Z" fill="#D42427"/>
<path d="M72.1483 14.5526H77.0747V16.3215C77.7558 15.5051 78.4369 14.9608 79.1179 14.666C79.799 14.3938 80.6163 14.2351 81.5471 14.2351C82.5233 14.2351 83.3633 14.3938 84.0671 14.7113C84.7709 15.0288 85.3611 15.4824 85.8606 16.0494C86.2692 16.5256 86.5417 17.0473 86.6779 17.6369C86.8141 18.2266 86.9049 18.8842 86.9049 19.6327V28.5001H81.9558V21.4696C81.9558 20.7893 81.9104 20.2223 81.7968 19.7914C81.706 19.3605 81.5244 19.0203 81.2747 18.7709C81.0477 18.5441 80.8206 18.408 80.5482 18.3173C80.2758 18.2266 79.9806 18.1812 79.6855 18.1812C78.8455 18.1812 78.2098 18.4307 77.7558 18.9296C77.3017 19.4285 77.0974 20.1316 77.0974 21.0614V28.5228H72.171V14.5526H72.1483Z" fill="#D42427"/>
<path d="M95.1459 5.93454V19.5873L100.322 14.5525H107.065L100.072 20.9934L107.473 28.5001H100.572L95.1459 22.8077V28.5001H90.2195V5.93454H95.1459Z" fill="#D42427"/>
<path d="M114.307 26.6178L107.541 14.5752H113.262L116.986 21.7191L120.618 14.5752H126.294L115.079 35.4852H109.539L114.307 26.6178Z" fill="#D42427"/>
<path d="M128.428 7.99835H136.374C138.258 7.99835 139.688 8.45193 140.687 9.35909C141.663 10.2662 142.163 11.5816 142.163 13.2825C142.163 14.3258 141.981 15.1649 141.595 15.8453C141.232 16.5256 140.664 17.0926 139.893 17.5689C140.664 17.7049 141.3 17.9317 141.845 18.2266C142.39 18.5214 142.821 18.8842 143.162 19.3378C143.502 19.7687 143.729 20.2677 143.888 20.812C144.024 21.3563 144.115 21.9459 144.115 22.5582C144.115 23.5108 143.956 24.3726 143.616 25.121C143.275 25.8694 142.798 26.4817 142.208 27.0033C141.595 27.5023 140.869 27.8878 139.983 28.1373C139.121 28.3867 138.122 28.5228 137.032 28.5228H128.45V7.99835H128.428ZM133.763 16.0494H134.739C136.419 16.0494 137.236 15.3917 137.236 14.0536C137.236 12.7382 136.396 12.0579 134.739 12.0579H133.763V16.0494ZM133.763 24.3726H134.943C136.283 24.3726 137.259 24.1911 137.827 23.8509C138.417 23.5108 138.689 22.9438 138.689 22.1954C138.689 21.4243 138.394 20.88 137.827 20.5398C137.236 20.1996 136.283 20.0182 134.943 20.0182H133.763V24.3726Z" fill="#D42427"/>
<path d="M157.6 14.5526H162.55V28.5001H157.6V26.958C156.556 28.2733 155.126 28.9537 153.332 28.9537C152.311 28.9537 151.38 28.7723 150.517 28.3867C149.655 28.0239 148.928 27.5023 148.292 26.8219C147.657 26.1415 147.157 25.3704 146.817 24.4633C146.454 23.5561 146.295 22.5582 146.295 21.4923C146.295 20.4945 146.476 19.5419 146.817 18.6575C147.157 17.7503 147.634 16.9792 148.27 16.2988C148.883 15.6185 149.632 15.0969 150.472 14.7113C151.335 14.3258 152.265 14.1217 153.31 14.1217C155.058 14.1217 156.488 14.734 157.646 15.936V14.5526H157.6ZM151.38 21.4923C151.38 21.9459 151.471 22.3768 151.63 22.7624C151.789 23.1479 152.016 23.4881 152.288 23.7829C152.561 24.0777 152.901 24.3045 153.287 24.4633C153.673 24.622 154.104 24.7127 154.558 24.7127C154.99 24.7127 155.398 24.622 155.807 24.4633C156.193 24.3045 156.533 24.0777 156.806 23.7829C157.078 23.4881 157.305 23.1479 157.487 22.785C157.669 22.3995 157.737 21.9913 157.737 21.5604C157.737 21.1295 157.646 20.7212 157.487 20.313C157.305 19.9275 157.078 19.5873 156.806 19.2925C156.533 18.9976 156.193 18.7709 155.807 18.6121C155.421 18.4533 155.012 18.3626 154.558 18.3626C154.104 18.3626 153.673 18.4533 153.287 18.6121C152.901 18.7709 152.561 18.9976 152.288 19.2925C152.016 19.5873 151.789 19.9048 151.63 20.2903C151.471 20.6532 151.38 21.0614 151.38 21.4923Z" fill="#D42427"/>
<path d="M171.245 26.6178L164.479 14.5752H170.2L173.924 21.7191L177.556 14.5752H183.232L172.017 35.4852H166.477L171.245 26.6178Z" fill="#D42427"/>
<defs>
<linearGradient id="paint0_linear_6002_1222" x1="2.90769" y1="48.3086" x2="49.7372" y2="1.67089" gradientUnits="userSpaceOnUse">
<stop stop-color="#F58220"/>
<stop offset="0.5824" stop-color="#D42427"/>
</linearGradient>
</defs>
</svg>
